<mxfile host="app.diagrams.net" modified="2023-06-27T20:18:51.357Z" agent="Mozilla/5.0 (Windows NT 10.0; Win64; x64) AppleWebKit/537.36 (KHTML, like Gecko) Chrome/114.0.0.0 Safari/537.36 OPR/100.0.0.0" version="21.5.1" etag="CqLVqNyfKm1hl48fW-YD" type="github">
  <diagram name="PÃ¡gina-1" id="ofsVzOhGFqy19sZgPfLg">
    <mxGraphModel>
      <root>
        <mxCell id="0" />
        <mxCell id="1" parent="0" />
      </root>
    </mxGraphModel>
  </diagram>
</mxfile>
